<svg width="18" height="19" viewBox="0 0 18 19" fill="none" xmlns="http://www.w3.org/2000/svg">
<path d="M12.3333 4.5013V3.83464C12.3333 2.90121 12.3333 2.4345 12.1517 2.07798C11.9919 1.76438 11.7369 1.50941 11.4233 1.34962C11.0668 1.16797 10.6001 1.16797 9.66667 1.16797H8.33333C7.39991 1.16797 6.9332 1.16797 6.57668 1.34962C6.26308 1.50941 6.00811 1.76438 5.84832 2.07798C5.66667 2.4345 5.66667 2.90121 5.66667 3.83464V4.5013M7.33333 9.08464V13.2513M10.6667 9.08464V13.2513M1.5 4.5013H16.5M14.8333 4.5013V13.8346C14.8333 15.2348 14.8333 15.9348 14.5608 16.4696C14.3212 16.94 13.9387 17.3225 13.4683 17.5622C12.9335 17.8346 12.2335 17.8346 10.8333 17.8346H7.16667C5.76654 17.8346 5.06647 17.8346 4.53169 17.5622C4.06129 17.3225 3.67883 16.94 3.43915 16.4696C3.16667 15.9348 3.16667 15.2348 3.16667 13.8346V4.5013" stroke="#89909F" stroke-width="1.5" stroke-linecap="round" stroke-linejoin="round"/>
</svg>
