<svg width="18" height="18" viewBox="0 0 18 18" fill="none" xmlns="http://www.w3.org/2000/svg">
<path opacity="0.5" d="M6.05 5.8V3.56C6.05 2.66392 6.05 2.21587 6.22439 1.87362C6.37779 1.57256 6.62256 1.32779 6.92362 1.17439C7.26587 1 7.71392 1 8.61 1H14.69C15.5861 1 16.0341 1 16.3764 1.17439C16.6774 1.32779 16.9222 1.57256 17.0756 1.87362C17.25 2.21587 17.25 2.66392 17.25 3.56V9.64C17.25 10.5361 17.25 10.9841 17.0756 11.3264C16.9222 11.6274 16.6774 11.8722 16.3764 12.0256C16.0341 12.2 15.5861 12.2 14.69 12.2H12.45M3.81 17H9.89C10.7861 17 11.2341 17 11.5764 16.8256C11.8774 16.6722 12.1222 16.4274 12.2756 16.1264C12.45 15.7841 12.45 15.3361 12.45 14.44V8.36C12.45 7.46392 12.45 7.01587 12.2756 6.67362C12.1222 6.37256 11.8774 6.12779 11.5764 5.97439C11.2341 5.8 10.7861 5.8 9.89 5.8H3.81C2.91392 5.8 2.46587 5.8 2.12362 5.97439C1.82256 6.12779 1.57779 6.37256 1.42439 6.67362C1.25 7.01587 1.25 7.46392 1.25 8.36V14.44C1.25 15.3361 1.25 15.7841 1.42439 16.1264C1.57779 16.4274 1.82256 16.6722 2.12362 16.8256C2.46587 17 2.91392 17 3.81 17Z" stroke="white" stroke-width="1.5" stroke-linecap="round" stroke-linejoin="round"/>
</svg>
