<svg width="23" height="22" viewBox="0 0 23 22" fill="none" xmlns="http://www.w3.org/2000/svg">
<path d="M13.3334 2.0791V5.86543C13.3334 6.37881 13.3334 6.6355 13.4333 6.83159C13.5212 7.00407 13.6614 7.1443 13.8339 7.23219C14.03 7.3321 14.2867 7.3321 14.8001 7.3321H18.5864M15.1667 11.9154H7.83342M15.1667 15.582H7.83342M9.66675 8.2487H7.83342M13.3334 1.83203H8.56675C7.0266 1.83203 6.25653 1.83203 5.66827 2.13176C5.15083 2.39542 4.73013 2.81611 4.46648 3.33356C4.16675 3.92182 4.16675 4.69189 4.16675 6.23203V15.7654C4.16675 17.3055 4.16675 18.0756 4.46648 18.6638C4.73013 19.1813 5.15083 19.602 5.66827 19.8656C6.25653 20.1654 7.0266 20.1654 8.56675 20.1654H14.4334C15.9736 20.1654 16.7436 20.1654 17.3319 19.8656C17.8493 19.602 18.27 19.1813 18.5337 18.6638C18.8334 18.0756 18.8334 17.3055 18.8334 15.7654V7.33203L13.3334 1.83203Z" stroke="white" stroke-width="1.375" stroke-linecap="round" stroke-linejoin="round"/>
</svg>
