<svg width="126" height="140" viewBox="0 0 126 140" fill="none" xmlns="http://www.w3.org/2000/svg">
<path d="M28 56V42C28 22.67 43.67 7 63 7C77.3522 7 89.6868 15.6387 95.0877 28M63 87.5V101.5M40.6 133H85.4C97.1611 133 103.042 133 107.534 130.711C111.485 128.698 114.698 125.485 116.711 121.534C119 117.042 119 111.161 119 99.4V89.6C119 77.8389 119 71.9583 116.711 67.4662C114.698 63.5148 111.485 60.3022 107.534 58.2889C103.042 56 97.1611 56 85.4 56H40.6C28.8389 56 22.9583 56 18.4662 58.2889C14.5148 60.3022 11.3022 63.5148 9.28886 67.4662C7 71.9583 7 77.8389 7 89.6V99.4C7 111.161 7 117.042 9.28886 121.534C11.3022 125.485 14.5148 128.698 18.4662 130.711C22.9583 133 28.8389 133 40.6 133Z" stroke="#2C4A7E" stroke-width="14" stroke-linecap="round" stroke-linejoin="round"/>
</svg>
