<svg width="25" height="24" viewBox="0 0 25 24" fill="none" xmlns="http://www.w3.org/2000/svg">
<path d="M3.5 10.5638C3.5 9.98948 3.5 9.7023 3.57403 9.43783C3.6396 9.20356 3.74737 8.98322 3.89203 8.78764C4.05534 8.56683 4.28202 8.39052 4.73539 8.0379L11.5177 2.76278C11.869 2.48953 12.0447 2.3529 12.2387 2.30038C12.4098 2.25404 12.5902 2.25404 12.7613 2.30038C12.9553 2.3529 13.131 2.48953 13.4823 2.76278L20.2646 8.03791C20.718 8.39052 20.9447 8.56683 21.108 8.78764C21.2526 8.98322 21.3604 9.20356 21.426 9.43783C21.5 9.7023 21.5 9.98948 21.5 10.5638V17.7988C21.5 18.9189 21.5 19.4789 21.282 19.9067C21.0903 20.2831 20.7843 20.589 20.408 20.7808C19.9802 20.9988 19.4201 20.9988 18.3 20.9988H6.7C5.57989 20.9988 5.01984 20.9988 4.59202 20.7808C4.21569 20.589 3.90973 20.2831 3.71799 19.9067C3.5 19.4789 3.5 18.9189 3.5 17.7988V10.5638Z" stroke="white" stroke-width="1.5" stroke-linecap="round" stroke-linejoin="round"/>
</svg>
