<svg width="16" height="16" viewBox="0 0 16 16" fill="none" xmlns="http://www.w3.org/2000/svg">
<path d="M1.27075 15.23L5.20148 13.7182C5.4529 13.6215 5.57861 13.5732 5.69622 13.51C5.80069 13.454 5.90028 13.3892 5.99395 13.3165C6.0994 13.2347 6.19464 13.1395 6.38512 12.949L14.3749 4.9592C15.1573 4.1768 15.1573 2.90827 14.3749 2.12587C13.5925 1.34346 12.324 1.34346 11.5416 2.12586L3.55179 10.1157C3.36131 10.3061 3.26607 10.4014 3.18424 10.5068C3.11155 10.6005 3.04683 10.7001 2.99075 10.8046C2.92762 10.9222 2.87927 11.0479 2.78257 11.2993L1.27075 15.23ZM1.27075 15.23L2.72859 11.4397C2.83291 11.1685 2.88507 11.0329 2.97453 10.9707C3.05272 10.9165 3.14947 10.8959 3.24296 10.9138C3.34995 10.9342 3.45269 11.037 3.65818 11.2424L5.25837 12.8426C5.46385 13.0481 5.5666 13.1509 5.58703 13.2578C5.60488 13.3513 5.58435 13.4481 5.53006 13.5263C5.46794 13.6157 5.33233 13.6679 5.06109 13.7722L1.27075 15.23Z" stroke="#89909F" stroke-width="1.5" stroke-linecap="round" stroke-linejoin="round"/>
</svg>
