<svg width="16" height="16" viewBox="0 0 16 16" fill="none" xmlns="http://www.w3.org/2000/svg">
<path d="M5 1.25H4.85C3.58988 1.25 2.95982 1.25 2.47852 1.49524C2.05516 1.71095 1.71095 2.05516 1.49524 2.47852C1.25 2.95982 1.25 3.58988 1.25 4.85V5M5 14.75H4.85C3.58988 14.75 2.95982 14.75 2.47852 14.5048C2.05516 14.289 1.71095 13.9448 1.49524 13.5215C1.25 13.0402 1.25 12.4101 1.25 11.15V11M14.75 5V4.85C14.75 3.58988 14.75 2.95982 14.5048 2.47852C14.289 2.05516 13.9448 1.71095 13.5215 1.49524C13.0402 1.25 12.4101 1.25 11.15 1.25H11M14.75 11V11.15C14.75 12.4101 14.75 13.0402 14.5048 13.5215C14.289 13.9448 13.9448 14.289 13.5215 14.5048C13.0402 14.75 12.4101 14.75 11.15 14.75H11M1.25 8H1.2575M4.625 8H4.6325M11.375 8H11.3825M8 8H8.0075M14.75 8H14.7575" stroke="white" stroke-width="1.5" stroke-linecap="round" stroke-linejoin="round"/>
</svg>
