<svg width="18" height="19" viewBox="0 0 18 19" fill="none" xmlns="http://www.w3.org/2000/svg">
<path d="M8.46199 2.93026C8.63485 2.58005 8.72128 2.40495 8.83862 2.34901C8.94071 2.30033 9.05931 2.30033 9.1614 2.34901C9.27874 2.40495 9.36517 2.58005 9.53804 2.93026L11.178 6.25273C11.2291 6.35612 11.2546 6.40782 11.2919 6.44795C11.3249 6.48349 11.3645 6.51228 11.4085 6.53274C11.4582 6.55584 11.5152 6.56418 11.6293 6.58085L15.2977 7.11705C15.684 7.17351 15.8772 7.20175 15.9666 7.2961C16.0444 7.37819 16.0809 7.49099 16.0661 7.6031C16.0491 7.73195 15.9093 7.86816 15.6296 8.14056L12.9761 10.7251C12.8934 10.8057 12.852 10.8459 12.8253 10.8939C12.8017 10.9363 12.7865 10.9829 12.7807 11.0312C12.7741 11.0856 12.7838 11.1425 12.8034 11.2563L13.4295 14.9069C13.4955 15.2919 13.5285 15.4844 13.4665 15.5986C13.4125 15.698 13.3165 15.7678 13.2053 15.7884C13.0775 15.8121 12.9046 15.7212 12.5588 15.5393L9.27928 13.8146C9.1771 13.7609 9.12601 13.734 9.07218 13.7235C9.02452 13.7141 8.9755 13.7141 8.92784 13.7235C8.87402 13.734 8.82293 13.7609 8.72074 13.8146L5.44119 15.5393C5.09544 15.7212 4.92256 15.8121 4.79473 15.7884C4.68351 15.7678 4.58754 15.698 4.53355 15.5986C4.4715 15.4844 4.50452 15.2919 4.57056 14.9069L5.19666 11.2563C5.21618 11.1425 5.22594 11.0856 5.21934 11.0312C5.21349 10.9829 5.19833 10.9363 5.1747 10.8939C5.14802 10.8459 5.10666 10.8057 5.02394 10.7251L2.37042 8.14056C2.09075 7.86816 1.95091 7.73195 1.93389 7.6031C1.91909 7.49099 1.95567 7.37819 2.03344 7.2961C2.12283 7.20175 2.31598 7.17351 2.70228 7.11705L6.37073 6.58085C6.48482 6.56418 6.54186 6.55584 6.59154 6.53274C6.63552 6.51228 6.67512 6.48349 6.70814 6.44795C6.74543 6.40782 6.77095 6.35612 6.82198 6.25273L8.46199 2.93026Z" stroke="white" stroke-width="1.5" stroke-linecap="round" stroke-linejoin="round"/>
</svg>
